<svg width="273" height="75" viewBox="0 0 273 75" fill="none" xmlns="http://www.w3.org/2000/svg">
<path d="M90.1162 6.79199H98.8182C101.63 6.79199 104.087 7.36199 106.19 8.50199C108.293 9.64199 109.901 11.2507 111.016 13.328C112.156 15.38 112.726 17.736 112.726 20.396C112.726 23.056 112.156 25.4247 111.016 27.502C109.901 29.554 108.293 31.15 106.19 32.29C104.087 33.43 101.63 34 98.8182 34H90.1162V6.79199ZM98.7422 29.934C101.782 29.934 104.151 29.098 105.848 27.426C107.571 25.7287 108.432 23.3853 108.432 20.396C108.432 17.432 107.571 15.1013 105.848 13.404C104.151 11.7067 101.782 10.858 98.7422 10.858H94.3722V29.934H98.7422ZM125.418 34.608C123.468 34.608 121.72 34.1647 120.174 33.278C118.629 32.366 117.426 31.1247 116.564 29.554C115.703 27.9833 115.272 26.2353 115.272 24.31C115.272 22.3847 115.703 20.6367 116.564 19.066C117.426 17.4953 118.629 16.2667 120.174 15.38C121.72 14.468 123.468 14.012 125.418 14.012C127.369 14.012 129.117 14.468 130.662 15.38C132.208 16.292 133.411 17.5333 134.272 19.104C135.134 20.6747 135.564 22.41 135.564 24.31C135.564 26.2353 135.134 27.9833 134.272 29.554C133.411 31.1247 132.208 32.366 130.662 33.278C129.117 34.1647 127.369 34.608 125.418 34.608ZM125.418 30.77C126.482 30.77 127.47 30.5167 128.382 30.01C129.294 29.478 130.016 28.7307 130.548 27.768C131.106 26.78 131.384 25.6273 131.384 24.31C131.384 22.9927 131.106 21.8527 130.548 20.89C130.016 19.9273 129.294 19.1927 128.382 18.686C127.47 18.154 126.482 17.888 125.418 17.888C124.354 17.888 123.366 18.154 122.454 18.686C121.542 19.1927 120.808 19.9273 120.25 20.89C119.718 21.8527 119.452 22.9927 119.452 24.31C119.452 25.6273 119.718 26.78 120.25 27.768C120.808 28.7307 121.542 29.478 122.454 30.01C123.366 30.5167 124.354 30.77 125.418 30.77ZM139.047 14.62H143.037V17.166H143.227C143.785 16.254 144.608 15.5067 145.697 14.924C146.812 14.316 147.99 14.012 149.231 14.012C151.587 14.012 153.373 14.7087 154.589 16.102C155.831 17.47 156.451 19.3447 156.451 21.726V34H152.271V22.296C152.271 20.776 151.891 19.6613 151.131 18.952C150.397 18.2427 149.371 17.888 148.053 17.888C147.116 17.888 146.28 18.154 145.545 18.686C144.811 19.1927 144.241 19.8767 143.835 20.738C143.43 21.5993 143.227 22.524 143.227 23.512V34H139.047V14.62ZM174.73 34.608C172.146 34.608 169.765 33.9873 167.586 32.746C165.408 31.5047 163.672 29.8073 162.38 27.654C161.114 25.4753 160.48 23.056 160.48 20.396C160.48 17.736 161.114 15.3293 162.38 13.176C163.672 10.9973 165.408 9.28732 167.586 8.04599C169.765 6.80465 172.146 6.18399 174.73 6.18399C176.782 6.18399 178.695 6.55132 180.468 7.28599C182.242 8.02066 183.724 9.04666 184.914 10.364L181.95 13.328C181.064 12.34 180 11.58 178.758 11.048C177.542 10.516 176.187 10.25 174.692 10.25C172.944 10.25 171.31 10.668 169.79 11.504C168.27 12.34 167.054 13.5307 166.142 15.076C165.23 16.6213 164.774 18.3947 164.774 20.396C164.774 22.3973 165.23 24.1707 166.142 25.716C167.054 27.2613 168.27 28.452 169.79 29.288C171.31 30.124 172.957 30.542 174.73 30.542C176.352 30.542 177.707 30.3013 178.796 29.82C179.886 29.3387 180.861 28.6927 181.722 27.882C182.28 27.3247 182.748 26.628 183.128 25.792C183.534 24.956 183.8 24.044 183.926 23.056H174.692V19.256H187.954C188.081 19.9653 188.144 20.7 188.144 21.46C188.144 23.1827 187.878 24.842 187.346 26.438C186.814 28.0087 185.966 29.3767 184.8 30.542C182.242 33.2527 178.885 34.608 174.73 34.608ZM201.27 34.608C199.319 34.608 197.571 34.1647 196.026 33.278C194.481 32.366 193.277 31.1247 192.416 29.554C191.555 27.9833 191.124 26.2353 191.124 24.31C191.124 22.3847 191.555 20.6367 192.416 19.066C193.277 17.4953 194.481 16.2667 196.026 15.38C197.571 14.468 199.319 14.012 201.27 14.012C203.221 14.012 204.969 14.468 206.514 15.38C208.059 16.292 209.263 17.5333 210.124 19.104C210.985 20.6747 211.416 22.41 211.416 24.31C211.416 26.2353 210.985 27.9833 210.124 29.554C209.263 31.1247 208.059 32.366 206.514 33.278C204.969 34.1647 203.221 34.608 201.27 34.608ZM201.27 30.77C202.334 30.77 203.322 30.5167 204.234 30.01C205.146 29.478 205.868 28.7307 206.4 27.768C206.957 26.78 207.236 25.6273 207.236 24.31C207.236 22.9927 206.957 21.8527 206.4 20.89C205.868 19.9273 205.146 19.1927 204.234 18.686C203.322 18.154 202.334 17.888 201.27 17.888C200.206 17.888 199.218 18.154 198.306 18.686C197.394 19.1927 196.659 19.9273 196.102 20.89C195.57 21.8527 195.304 22.9927 195.304 24.31C195.304 25.6273 195.57 26.78 196.102 27.768C196.659 28.7307 197.394 29.478 198.306 30.01C199.218 30.5167 200.206 30.77 201.27 30.77ZM214.899 14.62H218.889V17.166H219.079C219.636 16.254 220.459 15.5067 221.549 14.924C222.663 14.316 223.841 14.012 225.083 14.012C227.439 14.012 229.225 14.7087 230.441 16.102C231.682 17.47 232.303 19.3447 232.303 21.726V34H228.123V22.296C228.123 20.776 227.743 19.6613 226.983 18.952C226.248 18.2427 225.222 17.888 223.905 17.888C222.967 17.888 222.131 18.154 221.397 18.686C220.662 19.1927 220.092 19.8767 219.687 20.738C219.281 21.5993 219.079 22.524 219.079 23.512V34H214.899V14.62Z" fill="white"/>
<path d="M65 0H10C4.47715 0 0 4.47715 0 10V65C0 70.5229 4.47715 75 10 75H65C70.5229 75 75 70.5229 75 65V10C75 4.47715 70.5229 0 65 0Z" fill="#6C63FF"/>
<path d="M17 29C22.5228 29 27 24.5228 27 19C27 13.4772 22.5228 9 17 9C11.4772 9 7 13.4772 7 19C7 24.5228 11.4772 29 17 29Z" fill="white"/>
<path d="M50.5 69C60.7173 69 69 60.7173 69 50.5C69 40.2827 60.7173 32 50.5 32C40.2827 32 32 40.2827 32 50.5C32 60.7173 40.2827 69 50.5 69Z" fill="white"/>
<path d="M89.624 50.088H93.88L104.12 66.76H104.312L104.12 62.344V50.088H107.672V73H103.928L93.176 55.464H92.984L93.176 59.88V73H89.624V50.088ZM119.977 73.512C118.335 73.512 116.863 73.1387 115.561 72.392C114.26 71.624 113.247 70.5787 112.521 69.256C111.796 67.9333 111.433 66.4613 111.433 64.84C111.433 63.2187 111.796 61.7467 112.521 60.424C113.247 59.1013 114.26 58.0667 115.561 57.32C116.863 56.552 118.335 56.168 119.977 56.168C121.62 56.168 123.092 56.552 124.393 57.32C125.695 58.088 126.708 59.1333 127.433 60.456C128.159 61.7787 128.521 63.24 128.521 64.84C128.521 66.4613 128.159 67.9333 127.433 69.256C126.708 70.5787 125.695 71.624 124.393 72.392C123.092 73.1387 121.62 73.512 119.977 73.512ZM119.977 70.28C120.873 70.28 121.705 70.0667 122.473 69.64C123.241 69.192 123.849 68.5627 124.297 67.752C124.767 66.92 125.001 65.9493 125.001 64.84C125.001 63.7307 124.767 62.7707 124.297 61.96C123.849 61.1493 123.241 60.5307 122.473 60.104C121.705 59.656 120.873 59.432 119.977 59.432C119.081 59.432 118.249 59.656 117.481 60.104C116.713 60.5307 116.095 61.1493 115.625 61.96C115.177 62.7707 114.953 63.7307 114.953 64.84C114.953 65.9493 115.177 66.92 115.625 67.752C116.095 68.5627 116.713 69.192 117.481 69.64C118.249 70.0667 119.081 70.28 119.977 70.28ZM137.986 73.256C137.261 73.256 136.578 73.1387 135.938 72.904C135.298 72.6693 134.775 72.36 134.37 71.976C133.453 71.0587 132.994 69.8107 132.994 68.232V59.784H130.146V56.68H132.994V52.072H136.514V56.68H140.482V59.784H136.514V67.464C136.514 68.3387 136.685 68.9573 137.026 69.32C137.346 69.7467 137.901 69.96 138.69 69.96C139.053 69.96 139.373 69.9173 139.65 69.832C139.927 69.7253 140.226 69.5653 140.546 69.352V72.776C139.842 73.096 138.989 73.256 137.986 73.256ZM150.66 73.512C149.06 73.512 147.62 73.1387 146.34 72.392C145.082 71.6453 144.09 70.6213 143.364 69.32C142.66 67.9973 142.308 66.5147 142.308 64.872C142.308 63.3147 142.65 61.8747 143.332 60.552C144.036 59.208 145.007 58.1413 146.244 57.352C147.482 56.5627 148.89 56.168 150.468 56.168C152.111 56.168 153.53 56.5307 154.724 57.256C155.94 57.9813 156.858 58.9733 157.476 60.232C158.116 61.4907 158.436 62.9093 158.436 64.488C158.436 64.7867 158.404 65.16 158.34 65.608H145.828C145.956 67.1227 146.49 68.296 147.428 69.128C148.388 69.9387 149.498 70.344 150.756 70.344C151.759 70.344 152.623 70.12 153.348 69.672C154.095 69.2027 154.692 68.5733 155.14 67.784L158.116 69.192C157.348 70.536 156.346 71.592 155.108 72.36C153.871 73.128 152.388 73.512 150.66 73.512ZM154.852 62.92C154.81 62.344 154.628 61.7787 154.308 61.224C153.988 60.648 153.498 60.168 152.836 59.784C152.196 59.4 151.407 59.208 150.468 59.208C149.338 59.208 148.378 59.5493 147.588 60.232C146.82 60.8933 146.287 61.7893 145.988 62.92H154.852ZM167.75 73.512C165.873 73.512 164.337 73.1067 163.142 72.296C161.947 71.464 161.105 70.408 160.614 69.128L163.75 67.752C164.134 68.6053 164.667 69.256 165.35 69.704C166.054 70.152 166.854 70.376 167.75 70.376C168.625 70.376 169.361 70.2267 169.958 69.928C170.555 69.608 170.854 69.1387 170.854 68.52C170.854 67.9227 170.598 67.4533 170.086 67.112C169.574 66.7707 168.785 66.472 167.718 66.216L165.766 65.736C164.465 65.416 163.387 64.8507 162.534 64.04C161.681 63.2293 161.254 62.2053 161.254 60.968C161.254 60.008 161.531 59.1653 162.086 58.44C162.662 57.7147 163.43 57.16 164.39 56.776C165.35 56.3707 166.395 56.168 167.526 56.168C169.041 56.168 170.374 56.4773 171.526 57.096C172.678 57.6933 173.51 58.568 174.022 59.72L170.95 61.064C170.331 59.8053 169.201 59.176 167.558 59.176C166.769 59.176 166.107 59.336 165.574 59.656C165.041 59.976 164.774 60.392 164.774 60.904C164.774 61.3947 164.977 61.8 165.382 62.12C165.787 62.4187 166.385 62.6747 167.174 62.888L169.574 63.496C171.174 63.9013 172.379 64.52 173.19 65.352C174.022 66.1627 174.438 67.1653 174.438 68.36C174.438 69.384 174.139 70.2907 173.542 71.08C172.966 71.848 172.166 72.4453 171.142 72.872C170.118 73.2987 168.987 73.512 167.75 73.512Z" fill="white"/>
</svg>
